<?xml version="1.0" encoding="UTF-8"?>
<svg version="1.1" xmlns="http://www.w3.org/2000/svg" width="1080" height="1080">
<path d="M0 0 C356.4 0 712.8 0 1080 0 C1080 356.4 1080 712.8 1080 1080 C723.6 1080 367.2 1080 0 1080 C0 723.6 0 367.2 0 0 Z " fill="#141515" transform="translate(0,0)"/>
<path d="M0 0 C9.08328997 -0.39536818 18.1635894 -0.69662361 27.25362968 -0.88080692 C31.47590424 -0.96925605 35.69226484 -1.08893712 39.91113281 -1.2824707 C67.01762059 -2.49313314 67.01762059 -2.49313314 73.41833496 1.51397705 C77.08870245 5.35007508 78.77476785 9.7677866 80.27838135 14.79006958 C81.36520152 18.11841613 83.06079953 20.7744447 84.90625 23.75 C86.10487502 25.83292587 87.30279388 27.91625826 88.5 30 C93.79660977 39.21385561 93.79660977 39.21385561 99.18359375 48.375 C99.88935547 49.56222656 99.88935547 49.56222656 100.609375 50.7734375 C101.47133784 52.21849285 102.33701079 53.66134401 103.20703125 55.1015625 C106 59.78219289 106 59.78219289 106 62 C129.76 62 153.52 62 178 62 C178.66 60.35 179.32 58.7 180 57 C180.7355613 55.59523765 181.50086635 54.20570569 182.29296875 52.83203125 C182.98011963 51.63477417 182.98011963 51.63477417 183.68115234 50.41333008 C184.42679443 49.12591919 184.42679443 49.12591919 185.1875 47.8125 C185.96794678 46.45644653 185.96794678 46.45644653 186.76416016 45.07299805 C187.89811913 43.10381481 189.03360224 41.13550867 190.17041016 39.16796875 C192.0903816 35.84350258 194.00459271 32.51576604 195.91796875 29.1875 C197.23676843 26.89571205 198.55577559 24.60404348 199.875 22.3125 C200.49270264 21.23911377 201.11040527 20.16572754 201.74682617 19.05981445 C202.64171753 17.50846802 202.64171753 17.50846802 203.5546875 15.92578125 C204.07530762 15.02255127 204.59592773 14.11932129 205.13232422 13.1887207 C206.05682373 11.61030396 206.05682373 11.61030396 207 10 C207.32463226 9.15493896 207.64926453 8.30987793 207.98373413 7.43920898 C209.35839008 4.35306063 210.53477217 2.32738101 213 0 C218.36132166 -1.42367303 223.62704333 -1.16648678 229.1171875 -0.9765625 C230.70040409 -0.95789567 232.28367872 -0.94366838 233.86697388 -0.9336853 C238.02125392 -0.89561998 242.17200036 -0.79751175 246.32489014 -0.68664551 C250.56766957 -0.58408197 254.811024 -0.53862098 259.0546875 -0.48828125 C267.37140799 -0.38124267 275.68526371 -0.21073314 284 0 C282.52122382 3.79130874 280.82498817 7.23693832 278.796875 10.76953125 C278.15363281 11.89294922 277.51039063 13.01636719 276.84765625 14.17382812 C276.14855234 15.38678495 275.44933056 16.59967384 274.75 17.8125 C274.02454649 19.07606103 273.29928874 20.33973448 272.57421875 21.60351562 C267.52138081 30.40073272 262.41481971 39.16628873 257.28979492 47.92163086 C252.83265681 55.54546786 248.4370087 63.20355949 244.0625 70.875 C238.70923717 80.26264581 233.33888729 89.63994566 227.9375 99 C227.34267822 100.03108887 226.74785645 101.06217773 226.13500977 102.12451172 C224.99119907 104.10526887 223.8246623 106.07309644 222.63452148 108.02636719 C220.89617096 110.9883187 220.89617096 110.9883187 219.83618164 114.38769531 C218.31202331 118.26011254 217.22529883 120.3312555 214 123 C206.45097521 125.02852952 198.28000434 124.11802375 190.5625 123.75 C188.37840085 123.68977579 186.19414337 123.63502832 184.00976562 123.5859375 C178.66971274 123.45399939 173.33558745 123.25355312 168 123 C167.34 124.65 166.68 126.3 166 128 C184.81 128 203.62 128 223 128 C219.25516299 134.86553452 215.50518503 141.71239342 211.625 148.5 C211.12097656 149.38236328 210.61695313 150.26472656 210.09765625 151.17382812 C205.46744046 159.2460236 200.72073826 167.24795236 195.96173096 175.24462891 C191.57116792 182.62414322 187.23536451 190.03014569 183 197.5 C178.48978363 205.45281188 173.86237238 213.33040238 169.1875 221.1875 C159.95998816 236.69700593 150.94426158 252.32540297 142 268 C141.34 268 140.68 268 140 268 C139.44054687 266.9790625 138.88109375 265.958125 138.3046875 264.90625 C132.87822603 255.04898688 127.28692428 245.29923061 121.59716797 235.59179688 C117.01111586 227.75805859 112.49294895 219.88730003 108 212 C102.46340643 202.28369577 96.87256777 192.60103128 91.2253418 182.94848633 C86.25882326 174.45633971 81.33676067 165.93902958 76.42724609 157.41381836 C73.49782428 152.32736123 70.56371993 147.24390549 67.609375 142.171875 C67.09205811 141.28282471 66.57474121 140.39377441 66.04174805 139.4777832 C65.07885852 137.8242322 64.11426506 136.17167185 63.14770508 134.52026367 C60 129.11095945 60 129.11095945 60 128 C81.45 128 102.9 128 125 128 C124.34 126.68 123.68 125.36 123 124 C122.35821808 124.02744293 121.71643616 124.05488586 121.0552063 124.0831604 C114.33830416 124.35236495 107.62715532 124.49312965 100.90527344 124.56152344 C98.40223753 124.60355323 95.89951755 124.67766748 93.3984375 124.78515625 C73.22343221 125.62042717 73.22343221 125.62042717 67.95428467 121.3369751 C64.55002305 117.09182821 62.62338198 112.31927928 60.82574463 107.22369385 C59.72301952 104.2541038 58.18975015 101.66359319 56.5234375 98.9765625 C56.00652344 98.09613281 55.48960937 97.21570313 54.95703125 96.30859375 C54.43496094 95.42300781 53.91289062 94.53742188 53.375 93.625 C48.18984139 84.7837872 43.07310981 75.90576314 38 67 C33.02303454 58.26580091 28.01245415 49.55278969 22.9375 40.875 C18.18062947 32.73754259 13.42733403 24.59813556 8.70388794 16.44122314 C7.70743756 14.72190119 6.70811769 13.0042433 5.70874023 11.28662109 C5.10747314 10.24715332 4.50620605 9.20768555 3.88671875 8.13671875 C3.35264404 7.21592529 2.81856934 6.29513184 2.26831055 5.34643555 C1 3 1 3 0 0 Z " fill="#04D7D7" transform="translate(357,377)"/>
<path d="M0 0 C2.61712286 2.36271395 4.17321749 4.83435853 5.86328125 7.91796875 C6.41306641 8.91248047 6.96285156 9.90699219 7.52929688 10.93164062 C8.11775391 12.00607422 8.70621094 13.08050781 9.3125 14.1875 C10.57760754 16.47366409 11.84458199 18.75879592 13.11328125 21.04296875 C13.43660431 21.62537323 13.75992737 22.20777771 14.0930481 22.80783081 C17.31083583 28.58858251 20.64608171 34.29753233 24 40 C29.37270626 49.14868956 34.59077544 58.37404962 39.75 67.64453125 C43.74964686 74.81354113 47.84363744 81.92083221 52 89 C61.2944803 104.83702949 70.20718791 120.87984451 79 137 C61.18 137.33 43.36 137.66 25 138 C27.53404861 141.13253988 27.53404861 141.13253988 29.96388245 141.28433228 C30.70871384 141.24415985 31.45354523 141.20398743 32.22094727 141.16259766 C33.06935684 141.12752106 33.91776642 141.09244446 34.79188538 141.05630493 C36.16527321 140.98589493 36.16527321 140.98589493 37.56640625 140.9140625 C39.51617931 140.86809149 41.46606138 140.82656912 43.41601562 140.7890625 C46.48600508 140.719496 49.54544136 140.62595066 52.61157227 140.45507812 C69.15220159 139.5872676 69.15220159 139.5872676 73.85675049 143.5730896 C77.1152563 147.61370507 79.18952436 152.14143304 81.13522339 156.9251709 C82.23592144 159.56603828 83.62851352 161.96554392 85.109375 164.41015625 C85.99041374 165.96046588 86.87062475 167.5112462 87.75 169.0625 C92.63479143 177.64419221 97.59272542 186.18118656 102.57714844 194.70532227 C107.54241726 203.20179579 112.46339587 211.72327158 117.37182617 220.25268555 C120.52205886 225.72210794 123.68689344 231.18212628 126.8828125 236.625 C127.51123047 237.69621094 128.13964844 238.76742187 128.78710938 239.87109375 C129.97050695 241.8857621 131.15650203 243.8989081 132.34570312 245.91015625 C132.88388672 246.82667969 133.42207031 247.74320313 133.9765625 248.6875 C134.44143066 249.47511719 134.90629883 250.26273438 135.38525391 251.07421875 C137.72575429 255.31500445 139.85653122 259.65701971 142 264 C132.91671003 264.39536818 123.8364106 264.69662361 114.74637032 264.88080692 C110.52409576 264.96925605 106.30773516 265.08893712 102.08886719 265.2824707 C74.88716597 266.49805701 74.88716597 266.49805701 68.54541016 262.4225769 C64.87809516 258.52980528 63.09761951 254.11849291 61.6227417 249.03689575 C60.82690189 246.43382175 59.5764907 244.30983623 58.109375 242.02734375 C57.32290464 240.66406944 56.53644786 239.30078729 55.75 237.9375 C55.3175296 237.23330933 54.8850592 236.52911865 54.43948364 235.80358887 C51.69121758 231.25712953 49.49856698 226.84348885 47.67236328 221.84985352 C44.87787395 214.93454292 41.92888721 208.73410562 36 204 C25.12697894 200.15429271 13.00418498 201.32009992 1.66223145 201.88848877 C-2.58685389 202.07523592 -6.83741865 202.12313241 -11.08984375 202.18359375 C-19.40070318 202.32180839 -27.69709502 202.61135788 -36 203 C-36.44940948 204.15220284 -36.44940948 204.15220284 -36.90789795 205.3276825 C-38.12355638 208.30233611 -39.60310664 210.98259922 -41.203125 213.76953125 C-41.84749512 214.89488281 -42.49186523 216.02023437 -43.15576172 217.1796875 C-43.8537391 218.39068382 -44.55182082 219.60162001 -45.25 220.8125 C-45.96520909 222.05847749 -46.68021324 223.30457264 -47.39501953 224.55078125 C-52.76768212 233.90660139 -58.19333311 243.23158387 -63.65722656 252.53442383 C-64.20088867 253.46150146 -64.74455078 254.3885791 -65.3046875 255.34375 C-65.77890137 256.15005859 -66.25311523 256.95636719 -66.74169922 257.78710938 C-67.89761003 259.81993351 -68.95419851 261.90839702 -70 264 C-93.43 264 -116.86 264 -141 264 C-139.53195771 259.59587313 -138.32284118 256.52117022 -136.05078125 252.640625 C-135.16132813 251.11115234 -135.16132813 251.11115234 -134.25390625 249.55078125 C-133.29291016 247.91689453 -133.29291016 247.91689453 -132.3125 246.25 C-131.63743361 245.09279028 -130.96296538 243.93523143 -130.2890625 242.77734375 C-128.88984195 240.37429418 -127.48807065 237.9727608 -126.08447266 235.57226562 C-122.86550616 230.06213155 -119.68484971 224.52989642 -116.5 219 C-115.25146179 216.83584536 -114.00276332 214.67178316 -112.75390625 212.5078125 C-110.23930564 208.14934612 -107.72645339 203.78987809 -105.21484375 199.4296875 C-98.48316277 187.74673401 -91.73071115 176.07669401 -84.91772461 164.44091797 C-84.12507202 163.08571045 -84.12507202 163.08571045 -83.31640625 161.703125 C-82.48616943 160.35565186 -82.48616943 160.35565186 -81.63916016 158.98095703 C-80.36699431 156.66741146 -79.49723404 154.69164593 -78.63818359 152.23388672 C-77.08356718 148.20459358 -75.54309724 144.63502494 -72 142 C-64.52691531 139.54154831 -56.24824182 140.36602534 -48.5 140.625 C-46.32036775 140.64702303 -44.14066175 140.66271375 -41.9609375 140.671875 C-36.63758268 140.70800286 -31.32044197 140.82319555 -26 141 C-25.34 139.68 -24.68 138.36 -24 137 C-41.82 137 -59.64 137 -78 137 C-74.03070785 129.06141571 -70.0190316 121.41315956 -65.5 113.8125 C-60.56170962 105.43109458 -55.72711088 97.00227117 -51 88.5 C-45.8641073 79.27045651 -40.59786898 70.12762061 -35.25 61.01953125 C-31.07755875 53.89471528 -27.01515299 46.71448256 -23 39.5 C-18.169831 30.82348396 -13.25592756 22.20140799 -8.25 13.625 C-7.35474609 12.09069336 -7.35474609 12.09069336 -6.44140625 10.52539062 C-2.28019663 3.42029494 -2.28019663 3.42029494 0 0 Z " fill="#0488A4" transform="translate(570,113)"/>
<path d="M0 0 C0.39935257 0.71203079 0.79870514 1.42406158 1.2101593 2.15766907 C1.76123352 3.10972229 2.31230774 4.06177551 2.88008118 5.04267883 C3.47369446 6.13378967 4.06730774 7.22490051 4.6789093 8.34907532 C5.33895739 9.55291067 5.999117 10.75668488 6.65937805 11.96040344 C7.68809178 13.84441073 8.71512333 15.72930508 9.73994446 17.61543274 C10.73598136 19.4457875 11.73832567 21.27257537 12.7414093 23.09907532 C13.33502258 24.18905823 13.92863586 25.27904114 14.54023743 26.40205383 C15.94685426 28.72317725 17.18410477 30.3871842 19.2101593 32.15766907 C21.44091573 28.3460972 23.66947094 24.53324266 25.8976593 20.72016907 C26.52349915 19.65089172 27.14933899 18.58161438 27.79414368 17.47993469 C28.40967102 16.4261261 29.02519836 15.3723175 29.65937805 14.28657532 C30.21971741 13.32823792 30.78005676 12.36990051 31.3573761 11.38252258 C33.68456945 7.3319366 35.94146985 3.24131007 38.2101593 -0.84233093 C57.3501593 -0.84233093 76.4901593 -0.84233093 96.2101593 -0.84233093 C92.46532229 6.02320359 88.71534433 12.87006249 84.8351593 19.65766907 C84.33113586 20.54003235 83.82711243 21.42239563 83.30781555 22.33149719 C78.67759976 30.40369267 73.93089756 38.40562143 69.17189026 46.40229797 C64.78132723 53.78181228 60.44552381 61.18781475 56.2101593 68.65766907 C51.69994293 76.61048095 47.07253168 84.48807145 42.3976593 92.34516907 C33.17014747 107.854675 24.15442088 123.48307204 15.2101593 139.15766907 C14.5501593 139.15766907 13.8901593 139.15766907 13.2101593 139.15766907 C12.65070618 138.13673157 12.09125305 137.11579407 11.5148468 136.06391907 C6.08838533 126.20665594 0.49708359 116.45689968 -5.19267273 106.74946594 C-9.77872484 98.91572766 -14.29689175 91.04496909 -18.7898407 83.15766907 C-24.32643427 73.44136484 -29.91727293 63.75870034 -35.5644989 54.1061554 C-40.53101744 45.61400878 -45.45308002 37.09669864 -50.3625946 28.57148743 C-53.29201642 23.4850303 -56.22612076 18.40157456 -59.1804657 13.32954407 C-59.69778259 12.44049377 -60.21509949 11.55144348 -60.74809265 10.63545227 C-61.71098218 8.98190126 -62.67557564 7.32934092 -63.64213562 5.67793274 C-66.7898407 0.26862852 -66.7898407 0.26862852 -66.7898407 -0.84233093 C-58.36712987 -1.06561046 -49.94430118 -1.26711125 -41.52043438 -1.44073105 C-37.60898915 -1.52203422 -33.69801582 -1.61086528 -29.78715515 -1.71684265 C-26.01377445 -1.81881851 -22.24043342 -1.90109502 -18.46630287 -1.9696579 C-17.0256256 -1.99930545 -15.58507701 -2.03608094 -14.14476585 -2.08005524 C-12.12938997 -2.14037594 -10.11324622 -2.17314621 -8.09721375 -2.20463562 C-6.37512947 -2.24460663 -6.37512947 -2.24460663 -4.61825562 -2.28538513 C-1.7898407 -1.84233093 -1.7898407 -1.84233093 0 0 Z " fill="#05D7D7" transform="translate(483.7898406982422,505.8423309326172)"/>
<path d="M0 0 C2.61712286 2.36271395 4.17321749 4.83435853 5.86328125 7.91796875 C6.41306641 8.91248047 6.96285156 9.90699219 7.52929688 10.93164062 C8.11775391 12.00607422 8.70621094 13.08050781 9.3125 14.1875 C10.57760754 16.47366409 11.84458199 18.75879592 13.11328125 21.04296875 C13.59826584 21.91657547 13.59826584 21.91657547 14.0930481 22.80783081 C17.31083583 28.58858251 20.64608171 34.29753233 24 40 C29.37270626 49.14868956 34.59077544 58.37404962 39.75 67.64453125 C43.74964686 74.81354113 47.84363744 81.92083221 52 89 C61.2939418 104.83611194 70.21718738 120.87575808 79 137 C71.27759732 137.22840228 63.55606622 137.38588741 55.83105469 137.49438477 C53.20409601 137.53961566 50.57736354 137.60101248 47.95117188 137.67895508 C44.17260996 137.78828185 40.3970435 137.83920076 36.6171875 137.87890625 C35.44509735 137.92535782 34.2730072 137.97180939 33.06539917 138.01966858 C25.10970963 138.02458197 25.10970963 138.02458197 22.01805115 135.17008972 C20.43847959 132.84851477 19.19805116 130.53706574 18 128 C17.33653564 126.8658667 16.67307129 125.7317334 15.98950195 124.56323242 C15.41159912 123.50467041 14.83369629 122.4461084 14.23828125 121.35546875 C13.92094528 120.77839676 13.60360931 120.20132477 13.2766571 119.60676575 C12.28478217 117.80240712 11.29810401 115.99529055 10.3125 114.1875 C9.31582059 112.36206655 8.31790121 110.53736329 7.31620789 108.7146759 C6.41509995 107.07477229 5.51856623 105.4323576 4.62231445 103.78979492 C3.21601684 101.37147094 1.73577955 99.18853447 0 97 C-0.30591064 97.5669458 -0.61182129 98.1338916 -0.92700195 98.71801758 C-2.3859319 101.4177578 -3.84923268 104.11510834 -5.3125 106.8125 C-5.79267578 107.70259766 -6.27285156 108.59269531 -6.76757812 109.50976562 C-11.99209208 119.12686455 -17.5083238 128.51437748 -23 138 C-41.15 137.67 -59.3 137.34 -78 137 C-74.03070785 129.06141571 -70.0190316 121.41315956 -65.5 113.8125 C-60.56170962 105.43109458 -55.72711088 97.00227117 -51 88.5 C-45.8641073 79.27045651 -40.59786898 70.12762061 -35.25 61.01953125 C-31.07755875 53.89471528 -27.01515299 46.71448256 -23 39.5 C-18.169831 30.82348396 -13.25592756 22.20140799 -8.25 13.625 C-7.35474609 12.09069336 -7.35474609 12.09069336 -6.44140625 10.52539062 C-2.28019663 3.42029494 -2.28019663 3.42029494 0 0 Z " fill="#0488A4" transform="translate(570,113)"/>
<path d="M0 0 C7.66187585 5.47276847 12.28807227 12.33780947 14.4140625 21.4921875 C15.43466373 35.64552521 13.17193734 48.2618251 4.15234375 59.51953125 C-3.98946051 68.75910687 -14.14221931 75.05879718 -26.5859375 76.4921875 C-38.7884259 77.124819 -50.84160278 77.43653807 -60.73828125 69.2265625 C-68.41833036 62.01738321 -72.93566761 55.33806679 -73.82421875 44.6171875 C-74.16310997 30.34808336 -69.62897457 17.94884423 -60.0859375 7.3046875 C-44.7656942 -7.22008163 -18.28329339 -10.66065143 0 0 Z " fill="#FBFBFB" transform="translate(720.5859375,735.5078125)"/>
<path d="M0 0 C4.06410971 0.24571689 5.59642182 0.73551178 8.60302734 3.65698242 C10.84626376 6.99915157 12.63513656 10.58978433 14.44580078 14.17944336 C17.35126694 19.72254821 20.61748095 25.06228436 23.81109619 30.44277954 C26.34929091 34.73474071 28.84662293 39.05075558 31.35302734 43.36132812 C32.5082973 45.31084618 33.72492012 47.22458721 34.98193359 49.11010742 C38.28193359 33.27010742 41.58193359 17.43010742 44.98193359 1.11010742 C51.25193359 1.11010742 57.52193359 1.11010742 63.98193359 1.11010742 C62.51057687 10.24826312 60.7989772 19.32104427 58.97802734 28.39526367 C58.69170634 29.82821963 58.4054994 31.26119838 58.11940002 32.69419861 C57.52477548 35.67024411 56.92878551 38.64601185 56.33178711 41.62158203 C55.56699372 45.43406374 54.80570439 49.24723553 54.0454092 53.06061649 C53.45744366 56.00766184 52.86765119 58.95433924 52.27729988 61.90090752 C51.99565258 63.30781202 51.71457436 64.71483057 51.43408012 66.12196541 C51.04360717 68.07940366 50.6504079 70.03629747 50.25708008 71.99316406 C50.0343895 73.10502579 49.81169891 74.21688751 49.58226013 75.36244202 C48.98193359 78.11010742 48.98193359 78.11010742 47.98193359 81.11010742 C42.65488713 81.89528317 37.23635209 82.6307125 31.98193359 81.11010742 C27.75071184 77.35522839 25.58245559 72.7438718 23.16943359 67.73510742 C22.47081019 66.40272594 21.76576036 65.07369509 21.05444336 63.74804688 C19.64771717 61.11438615 18.2700734 58.4686918 16.91357422 55.80883789 C14.34036267 50.81309112 11.40859933 46.05303057 8.41943359 41.29760742 C7.54225027 39.87497333 6.66583964 38.45186223 5.79052734 37.02807617 C4.89527344 35.58368164 4.89527344 35.58368164 3.98193359 34.11010742 C-0.27838739 49.57256653 -3.05043651 65.36188477 -6.01806641 81.11010742 C-12.28806641 81.11010742 -18.55806641 81.11010742 -25.01806641 81.11010742 C-24.39055308 75.46248746 -23.73667069 70.19994715 -22.63525391 64.6784668 C-22.50016418 63.99600891 -22.36507446 63.31355103 -22.22589111 62.6104126 C-21.78544055 60.39077934 -21.33947591 58.17229925 -20.89306641 55.95385742 C-20.5827833 54.3997437 -20.27272847 52.84558439 -19.96289062 51.29138184 C-19.31646106 48.05336809 -18.66728181 44.81592137 -18.01611328 41.57885742 C-17.18024836 37.42246689 -16.35137417 33.26471764 -15.52450562 29.10652924 C-14.88732504 25.9062152 -14.24650274 22.70663897 -13.60455322 19.50727844 C-13.29721043 17.97323711 -12.99101486 16.43896547 -12.68597412 14.90446472 C-12.26131691 12.7710754 -11.83177766 10.63872791 -11.40087891 8.5065918 C-11.15740723 7.29241577 -10.91393555 6.07823975 -10.66308594 4.82727051 C-9.38906968 -0.53955913 -5.00095024 0.11443151 0 0 Z " fill="#F9F9F9" transform="translate(508.01806640625,729.889892578125)"/>
<path d="M0 0 C3.83867463 0.23289783 7.3645554 0.80603936 11.10351562 1.72045898 C11.34585938 2.76202148 11.58820313 3.80358398 11.83789062 4.87670898 C14.66541426 16.98895815 17.61727356 29.06396956 20.77148438 41.09545898 C26.32614715 62.30158809 26.32614715 62.30158809 28.54101562 72.28295898 C28.78658203 73.38873291 28.78658203 73.38873291 29.03710938 74.5168457 C30.10351562 79.44064331 30.10351562 79.44064331 30.10351562 81.72045898 C23.83351563 81.72045898 17.56351563 81.72045898 11.10351562 81.72045898 C8.10351562 68.09545898 8.10351562 68.09545898 8.10351562 64.72045898 C-12.34876989 62.48596007 -12.34876989 62.48596007 -31.30810547 67.33813477 C-33.4457642 70.07856934 -34.59866504 72.80234844 -35.79003906 76.04467773 C-36.66143009 78.24062306 -37.35521863 79.92278626 -38.89648438 81.72045898 C-45.23672595 83.82116604 -52.40679136 82.70288704 -58.89648438 81.72045898 C-54.09359524 73.28895121 -48.99651794 65.12878019 -43.64648438 57.03295898 C-42.88837501 55.88029426 -42.13064912 54.72737723 -41.37329102 53.57421875 C-39.88410131 51.30690035 -38.39389012 49.04025999 -36.90283203 46.77416992 C-34.78963133 43.557826 -32.68454369 40.33660652 -30.59667969 37.10375977 C-29.75709648 35.80997049 -28.90879587 34.52179537 -28.05175781 33.23950195 C-25.23407649 28.98160268 -22.74995803 24.62838511 -20.33789062 20.12670898 C-9.41177328 0.45061903 -9.41177328 0.45061903 0 0 Z " fill="#FBFBFB" transform="translate(788.896484375,729.279541015625)"/>
<path d="M0 0 C1.10758667 0.0314209 1.10758667 0.0314209 2.23754883 0.06347656 C3.44121094 0.0828125 3.44121094 0.0828125 4.66918945 0.10253906 C5.91925781 0.1528125 5.91925781 0.1528125 7.19458008 0.20410156 C8.03956055 0.22214844 8.88454102 0.24019531 9.75512695 0.25878906 C11.8395958 0.3058957 13.92348152 0.37763923 16.00708008 0.45410156 C18.46986027 7.41381667 20.22677173 14.37528837 21.81958008 21.57910156 C23.78472911 30.28544235 25.85343743 38.94933308 28.13208008 47.57910156 C28.38014404 48.52084229 28.62820801 49.46258301 28.88378906 50.43286133 C29.80538879 53.92363912 30.73067455 57.41343059 31.6574707 60.90283203 C32.23946606 63.10563827 32.81202243 65.31068111 33.38208008 67.51660156 C33.69918945 68.72445312 34.01629883 69.93230469 34.34301758 71.17675781 C35.00708008 74.45410156 35.00708008 74.45410156 35.00708008 80.45410156 C29.06708008 80.45410156 23.12708008 80.45410156 17.00708008 80.45410156 C15.20857803 74.30921957 14.00708008 69.91239442 14.00708008 63.45410156 C1.46708008 63.45410156 -11.07291992 63.45410156 -23.99291992 63.45410156 C-25.06479304 66.13378436 -26.11505053 68.82562101 -27.01635742 71.56738281 C-28.6300013 75.38696182 -29.86705285 77.68374226 -32.99291992 80.45410156 C-39.48573951 82.00621973 -46.42122 81.17963956 -52.99291992 80.45410156 C-51.61315766 76.6684907 -49.86710843 73.51109795 -47.64135742 70.15722656 C-46.96298828 69.12871582 -46.28461914 68.10020508 -45.58569336 67.04052734 C-45.04422668 66.22603119 -45.04422668 66.22603119 -44.49182129 65.39508057 C-42.5583397 62.48603812 -40.63986159 59.56711529 -38.71948242 56.64941406 C-38.32486816 56.05067474 -37.93025391 55.45193542 -37.52368164 54.83505249 C-33.54116346 48.78522867 -29.63659366 42.68642301 -25.74291992 36.57910156 C-20.74586602 28.75106164 -15.73494861 20.93268591 -10.68041992 13.14160156 C-9.88039551 11.90531006 -9.88039551 11.90531006 -9.06420898 10.64404297 C-8.57017578 9.88397949 -8.07614258 9.12391602 -7.56713867 8.34082031 C-7.14005615 7.68299561 -6.71297363 7.0251709 -6.27294922 6.34741211 C-5.85053955 5.72261963 -5.42812988 5.09782715 -4.99291992 4.45410156 C-4.30166016 3.35594116 -4.30166016 3.35594116 -3.59643555 2.2355957 C-1.99291992 0.45410156 -1.99291992 0.45410156 0 0 Z " fill="#FBFBFB" transform="translate(264.992919921875,730.5458984375)"/>
<path d="M0 0 C2.51217158 0.07529228 5.02455874 0.14372457 7.53710938 0.20507812 C13.67529535 0.36988784 19.80539917 0.62033477 25.9375 0.9375 C23.62198922 6.84882239 20.54416457 12.22079806 17.4375 17.75 C16.86257813 18.78576172 16.28765625 19.82152344 15.6953125 20.88867188 C14.47653881 23.06410307 13.22274131 25.22019451 11.93896484 27.35791016 C10.42331824 29.9334597 9.27512103 32.51776128 8.17431641 35.29443359 C6.15758261 39.90735789 4.14408886 43.98768927 -0.0625 46.9375 C-8.58664997 49.56129135 -17.91447829 48.43459491 -26.6875 47.9375 C-29.14690452 47.85717176 -31.6065603 47.78418014 -34.06640625 47.71875 C-40.07061699 47.54310823 -46.06538995 47.27611697 -52.0625 46.9375 C-51.32731212 42.81706982 -50.12224562 39.91778829 -48 36.2890625 C-47.36707031 35.19980469 -46.73414063 34.11054688 -46.08203125 32.98828125 C-45.41558594 31.85777344 -44.74914062 30.72726562 -44.0625 29.5625 C-43.42699219 28.47066406 -42.79148437 27.37882812 -42.13671875 26.25390625 C-40.81790348 23.99421275 -39.46775247 21.75256605 -38.08959961 19.52856445 C-36.57848107 17.0082137 -35.5002112 14.53739623 -34.50610352 11.77416992 C-28.33468343 -3.73214465 -14.52301207 -0.75378955 0 0 Z " fill="#0487A4" transform="translate(681.0625,415.0625)"/>
<path d="M0 0 C17.49 0 34.98 0 53 0 C52.08377858 3.66488568 51.02289793 6.01292331 49.19140625 9.26171875 C48.31645508 10.81922852 48.31645508 10.81922852 47.42382812 12.40820312 C46.80958984 13.49037109 46.19535156 14.57253906 45.5625 15.6875 C44.98306641 16.71939453 44.40363281 17.75128906 43.80664062 18.81445312 C42.57349485 21.00151664 41.30738167 23.17022914 40.01367188 25.32202148 C38.45498477 28.0026192 37.33709913 30.67759245 36.26757812 33.58618164 C34.29180994 38.45825103 32.32699568 42.81828144 28 46 C19.18631431 48.80597322 9.46374028 47.58871482 0.375 47.0625 C-2.18073896 46.97715756 -4.73675059 46.89960281 -7.29296875 46.83007812 C-13.53462479 46.64339019 -19.76604665 46.35966776 -26 46 C-22.82624625 40.15104917 -19.64756092 34.31113354 -16.30859375 28.5546875 C-15.67373047 27.45769531 -15.03886719 26.36070312 -14.38476562 25.23046875 C-13.74216797 24.12316406 -13.09957031 23.01585937 -12.4375 21.875 C-11.14382593 19.64363794 -9.85084349 17.41187474 -8.55859375 15.1796875 C-7.99454834 14.20757324 -7.43050293 13.23545898 -6.84936523 12.23388672 C-4.52926422 8.17684935 -2.26969477 4.08545059 0 0 Z " fill="#07D5D5" transform="translate(384,293)"/>
<path d="M0 0 C23.1 0 46.2 0 70 0 C69.01 4.95 68.02 9.9 67 15 C58.42 15 49.84 15 41 15 C40.67 18.63 40.34 22.26 40 26 C39.66894911 28.07598745 39.30214492 30.14709181 38.87670898 32.20581055 C38.65655624 33.28610031 38.4364035 34.36639008 38.20957947 35.47941589 C37.97412918 36.60382584 37.73867889 37.72823578 37.49609375 38.88671875 C37.2533522 40.06974075 37.01061066 41.25276276 36.76051331 42.47163391 C35.99181264 46.21144393 35.21480028 49.94946896 34.4375 53.6875 C33.91155682 56.23881845 33.38616081 58.79024976 32.86132812 61.34179688 C31.58054008 67.56252043 30.29230023 73.78165825 29 80 C22.73 80 16.46 80 10 80 C11.125 69.875 11.125 69.875 12.12329102 64.92944336 C12.45352013 63.27875099 12.45352013 63.27875099 12.79042053 61.5947113 C13.02587082 60.43810501 13.26132111 59.28149872 13.50390625 58.08984375 C13.7466478 56.88179581 13.98938934 55.67374786 14.23948669 54.42909241 C15.01019377 50.5978195 15.78626339 46.767656 16.5625 42.9375 C17.08868288 40.32893502 17.6136402 37.72012527 18.13867188 35.11132812 C19.42105797 28.73991535 20.71070025 22.37003289 22 16 C14.08 15.67 6.16 15.34 -2 15 C-1 4 -1 4 0 0 Z " fill="#FAFAFA" transform="translate(581,731)"/>
<path d="M0 0 C6.27 0 12.54 0 19 0 C17.69405232 8.03484775 16.25477811 16.02333737 14.65234375 24.00390625 C14.32720543 25.63246803 14.32720543 25.63246803 13.99549866 27.29393005 C13.54180723 29.5637367 13.08716215 31.83335293 12.6315918 34.1027832 C11.93314129 37.58422607 11.23884922 41.0664812 10.54492188 44.54882812 C10.10180945 46.76307027 9.65845873 48.97726474 9.21484375 51.19140625 C8.90389015 52.75224693 8.90389015 52.75224693 8.58665466 54.34461975 C8.29613976 55.78773781 8.29613976 55.78773781 7.99975586 57.26000977 C7.83035995 58.1053981 7.66096405 58.95078644 7.48643494 59.8217926 C7 62 7 62 6 65 C18.87 65 31.74 65 45 65 C44.4980785 70.019215 43.98925855 75.05370725 43 80 C23.53 80 4.06 80 -16 80 C-13.74942701 65.37127556 -13.74942701 65.37127556 -12.59545898 59.58911133 C-12.33856796 58.29519974 -12.08167694 57.00128815 -11.81700134 55.66816711 C-11.54351333 54.30609213 -11.26987405 52.94404751 -10.99609375 51.58203125 C-10.70971686 50.14812005 -10.42351107 48.71417466 -10.13746643 47.28019714 C-9.54346396 44.30580524 -8.94741838 41.33183248 -8.34985352 38.3581543 C-7.58372009 34.54474518 -6.82286 30.73030546 -6.06347561 26.91554737 C-5.47620958 23.96840368 -4.88620974 21.02181252 -4.29536629 18.07538414 C-4.01343157 16.66771059 -3.73235261 15.25986536 -3.45214653 13.85184669 C-3.0626003 11.89652341 -2.66897502 9.9420141 -2.27514648 7.98754883 C-2.0524559 6.8764827 -1.82976532 5.76541656 -1.60032654 4.62068176 C-1 2 -1 2 0 0 Z " fill="#F9F9F9" transform="translate(393,731)"/>
<path d="M0 0 C6.27 0 12.54 0 19 0 C17.875 10.125 17.875 10.125 16.87670898 15.16235352 C16.65655624 16.28283585 16.4364035 17.40331818 16.20957947 18.55775452 C15.97412918 19.73623459 15.73867889 20.91471466 15.49609375 22.12890625 C15.13198143 23.97427223 15.13198143 23.97427223 14.76051331 25.85691833 C14.12039471 29.09763382 13.47707849 32.33769197 12.83215332 35.57745361 C12.17248266 38.89549708 11.51705522 42.21437847 10.86132812 45.53320312 C9.5787577 52.02305 8.28921328 58.5114554 7 65 C19.87 65 32.74 65 46 65 C44 78 44 78 43 80 C23.86 80 4.72 80 -15 80 C-14.39049048 73.90490476 -13.79636213 68.36035288 -12.60131836 62.43896484 C-12.39627434 61.41264954 -12.39627434 61.41264954 -12.18708801 60.36560059 C-11.74256848 58.14643408 -11.29129184 55.92870386 -10.83984375 53.7109375 C-10.52696698 52.15589754 -10.21451995 50.60077106 -9.90248108 49.04556274 C-9.08641472 44.98417573 -8.26457655 40.92397833 -7.44146729 36.86401367 C-6.6000183 32.70823198 -5.76412104 28.55133416 -4.92773438 24.39453125 C-3.29054004 16.26192622 -1.64672416 8.13068075 0 0 Z " fill="#FBFBFB" transform="translate(324,731)"/>
<path d="M0 0 C4.56356048 3.15938803 6.86706205 5.91282041 9 11 C10.50114764 21.33289959 8.53063007 30.64101921 2.4609375 39.16015625 C-2.67516294 44.89262855 -8.89405208 47.55199443 -16.47265625 48.37890625 C-23.32151617 48.60598075 -29.54497696 48.53267615 -35 44 C-40.34331533 38.09281722 -41.29465444 32.99673402 -41.21875 25.140625 C-40.62249297 16.5800776 -37.02104399 9.59345291 -30.6875 3.8125 C-21.96146362 -3.18669971 -10.4315404 -4.47066017 0 0 Z " fill="#171717" transform="translate(707,748)"/>
<path d="M0 0 C2.83099588 3.38113648 5.10951762 6.74953057 7.21484375 10.62109375 C8.1119104 12.25703491 8.1119104 12.25703491 9.02709961 13.92602539 C9.65753174 15.08481201 10.28796387 16.24359863 10.9375 17.4375 C12.26657631 19.8643348 13.60057925 22.28841595 14.9375 24.7109375 C15.27389999 25.32052811 15.61029999 25.93011871 15.95689392 26.55818176 C19.85572107 33.59088997 23.9729179 40.49330409 28.13842773 47.37084961 C28.64833252 48.2191333 29.1582373 49.06741699 29.68359375 49.94140625 C30.35733032 51.05044312 30.35733032 51.05044312 31.04467773 52.18188477 C32 54 32 54 32 56 C11.21 56 -9.58 56 -31 56 C-29.47793731 52.19484326 -27.9255395 48.89531452 -25.9453125 45.34375 C-25.33582764 44.24804688 -24.72634277 43.15234375 -24.09838867 42.0234375 C-23.44075641 40.84886652 -22.78295673 39.67438925 -22.125 38.5 C-21.45210982 37.2943378 -20.77934078 36.08860798 -20.10668945 34.8828125 C-15.83526789 27.23540788 -11.5283106 19.60824729 -7.1875 12 C-6.69072754 11.12923828 -6.19395508 10.25847656 -5.68212891 9.36132812 C-3.85711318 6.17701246 -2.03695147 3.05542721 0 0 Z " fill="#FBFEFE" transform="translate(570,209)"/>
<path d="M0 0 C20.79 0 41.58 0 63 0 C61.49435603 3.76410993 59.96798631 7.03540064 58.015625 10.55078125 C57.11662476 12.17149536 57.11662476 12.17149536 56.19946289 13.82495117 C55.55614014 14.97584229 54.91281738 16.1267334 54.25 17.3125 C53.92240692 17.90060455 53.59481384 18.48870911 53.2572937 19.09463501 C46.34677833 31.49900066 39.21575942 43.77072623 32 56 C29.16900412 52.61886352 26.89048238 49.25046943 24.78515625 45.37890625 C24.18711182 44.28827881 23.58906738 43.19765137 22.97290039 42.07397461 C22.34246826 40.91518799 21.71203613 39.75640137 21.0625 38.5625 C19.73342369 36.1356652 18.39942075 33.71158405 17.0625 31.2890625 C16.72610001 30.67947189 16.38970001 30.06988129 16.04310608 29.44181824 C12.14427893 22.40911003 8.0270821 15.50669591 3.86157227 8.62915039 C3.35166748 7.7808667 2.8417627 6.93258301 2.31640625 6.05859375 C1.86724854 5.31923584 1.41809082 4.57987793 0.95532227 3.81811523 C0 2 0 2 0 0 Z " fill="#F8FEFE" transform="translate(471,484)"/>
<path d="M0 0 C6.27 0 12.54 0 19 0 C17.52864327 9.1381557 15.81704361 18.21093684 13.99609375 27.28515625 C13.70977274 28.71811221 13.4235658 30.15109096 13.13746643 31.58409119 C12.54284188 34.56013668 11.94685191 37.53590443 11.34985352 40.51147461 C10.58506013 44.32395631 9.8237708 48.13712811 9.06347561 51.95050907 C8.47551007 54.89755442 7.88571759 57.84423182 7.29536629 60.79080009 C7.01371899 62.1977046 6.73264077 63.60472315 6.45214653 65.01185799 C6.06167357 66.96929624 5.6684743 68.92619005 5.27514648 70.88305664 C5.0524559 71.99491837 4.82976532 73.10678009 4.60032654 74.25233459 C4 77 4 77 3 80 C-3.27 80 -9.54 80 -16 80 C-14.60109397 70.46498588 -12.89499544 61.02878447 -10.99609375 51.58203125 C-10.70971686 50.14812005 -10.42351107 48.71417466 -10.13746643 47.28019714 C-9.54346396 44.30580524 -8.94741838 41.33183248 -8.34985352 38.3581543 C-7.58372009 34.54474518 -6.82286 30.73030546 -6.06347561 26.91554737 C-5.47620958 23.96840368 -4.88620974 21.02181252 -4.29536629 18.07538414 C-4.01343157 16.66771059 -3.73235261 15.25986536 -3.45214653 13.85184669 C-3.0626003 11.89652341 -2.66897502 9.9420141 -2.27514648 7.98754883 C-2.0524559 6.8764827 -1.82976532 5.76541656 -1.60032654 4.62068176 C-1 2 -1 2 0 0 Z " fill="#F7F7F7" transform="translate(843,731)"/>
<path d="M0 0 C6.27 0 12.54 0 19 0 C18.36882165 5.68060513 17.70475395 10.98236525 16.60131836 16.53930664 C16.46462234 17.23312439 16.32792633 17.92694214 16.18708801 18.64178467 C15.74154433 20.89862553 15.29075274 23.15438183 14.83984375 25.41015625 C14.52706225 26.98906586 14.21461342 28.5680414 13.90248108 30.14707947 C13.08545295 34.27567651 12.26394791 38.40337002 11.44146729 42.53088379 C10.60081978 46.7537707 9.76446467 50.97750739 8.92773438 55.20117188 C7.28932604 63.46828065 5.64578456 71.73435649 4 80 C-2.27 80 -8.54 80 -15 80 C-14.32260186 71.08283799 -12.61999345 62.45603185 -10.83984375 53.7109375 C-10.52696698 52.15589754 -10.21451995 50.60077106 -9.90248108 49.04556274 C-9.08641472 44.98417573 -8.26457655 40.92397833 -7.44146729 36.86401367 C-6.6000183 32.70823198 -5.76412104 28.55133416 -4.92773438 24.39453125 C-3.29054004 16.26192622 -1.64672416 8.13068075 0 0 Z " fill="#F7F7F7" transform="translate(461,731)"/>
<path d="M0 0 C4.37432005 2.22931086 6.93789511 4.90818138 9.01171875 9.3046875 C9.99733234 14.31643963 9.41017318 18.23710106 6.88671875 22.6796875 C4.38070404 26.19370812 2.22251693 28.00905729 -1.98828125 29.3046875 C-8.49964719 30.24508587 -12.72495296 29.22638309 -17.98828125 25.3046875 C-21.27186573 21.7685196 -22.26866384 19.02291956 -22.48828125 14.3046875 C-22.26866384 9.58645544 -21.27186573 6.8408554 -17.98828125 3.3046875 C-12.35822571 -0.89025584 -6.82570587 -2.38698555 0 0 Z " fill="#121717" transform="translate(302.98828125,903.6953125)"/>
<path d="M0 0 C15 0 15 0 21 3 C23.45717992 6.68576988 23.69957317 9.71927846 23 14 C21.125 17 21.125 17 19 19 C18.34 19 17.68 19 17 19 C17.61875 20.0725 18.2375 21.145 18.875 22.25 C20.3323679 24.79780984 21.72924491 27.35259355 23 30 C21.12890625 29.71875 21.12890625 29.71875 19 29 C17.90234375 27.40625 17.90234375 27.40625 16.9375 25.5 C15.18698587 22.79113478 14.42273438 22.10448943 11.234375 21.31640625 C8.47492182 21.08645182 5.76813533 20.96606489 3 21 C3 23.97 3 26.94 3 30 C2.01 30 1.02 30 0 30 C0 20.1 0 10.2 0 0 Z " fill="#28BFBF" transform="translate(536,903)"/>
<path d="M0 0 C1.65 0 3.3 0 5 0 C6 1 6 1 6.09765625 3.72265625 C6.06510417 6.81510417 6.03255208 9.90755208 6 13 C10.95 13 15.9 13 21 13 C21 8.71 21 4.42 21 0 C22.98 0 24.96 0 27 0 C27 10.56 27 21.12 27 32 C23 33 23 33 21 32 C21 27.71 21 23.42 21 19 C16.05 19 11.1 19 6 19 C6.020625 21.124375 6.04125 23.24875 6.0625 25.4375 C6.08373783 27.62499611 6.07258946 29.81360547 6 32 C5.505 32.495 5.505 32.495 5 33 C3.35 33 1.7 33 0 33 C0 22.11 0 11.22 0 0 Z " fill="#022B2B" transform="translate(718,902)"/>
<path d="M0 0 C0.66 0 1.32 0 2 0 C3.98 9.9 5.96 19.8 8 30 C-0.25 30 -8.5 30 -17 30 C-11.37692308 18.75384615 -11.37692308 18.75384615 -9.140625 15.15625 C-8.66496094 14.38539063 -8.18929687 13.61453125 -7.69921875 12.8203125 C-7.22097656 12.05460938 -6.74273438 11.28890625 -6.25 10.5 C-5.27543269 8.92746058 -4.30144498 7.35456176 -3.328125 5.78125 C-2.9043457 5.10126953 -2.48056641 4.42128906 -2.04394531 3.72070312 C-0.95670396 1.98140023 -0.95670396 1.98140023 0 0 Z " fill="#191919" transform="translate(786,750)"/>
<path d="M0 0 C1.68481992 3.05602891 2.5551767 5.91052248 3.2890625 9.31640625 C3.50820313 10.32767578 3.72734375 11.33894531 3.953125 12.38085938 C4.17484375 13.43080078 4.3965625 14.48074219 4.625 15.5625 C4.96917969 17.14321289 4.96917969 17.14321289 5.3203125 18.75585938 C7 26.58940197 7 26.58940197 7 30 C-1.25 30 -9.5 30 -18 30 C-12.27091798 19.8149653 -6.25510771 9.86973962 0 0 Z " fill="#181818" transform="translate(268,750)"/>
<path d="M0 0 C0.99 0 1.98 0 3 0 C5.64 7.92 8.28 15.84 11 24 C13.47068146 16.48155255 13.47068146 16.48155255 15.90527344 8.95141602 C16.22012695 8.01998779 16.53498047 7.08855957 16.859375 6.12890625 C17.17358398 5.17056885 17.48779297 4.21223145 17.81152344 3.22485352 C19 1 19 1 21.13378906 0.17944336 C21.74963867 0.12022705 22.36548828 0.06101074 23 0 C25.68641512 6.45882784 28.03738685 12.96553258 30.16796875 19.62890625 C30.78190289 21.92626568 30.78190289 21.92626568 32 23 C34.64 15.41 37.28 7.82 40 0 C40.99 0 41.98 0 43 0 C41.60152532 6.88642833 39.64985223 13.41826697 37.375 20.0625 C37.05015625 21.02349609 36.7253125 21.98449219 36.390625 22.97460938 C35.59788808 25.31784644 34.80095424 27.65956176 34 30 C32.68 30 31.36 30 30 30 C27.36 22.41 24.72 14.82 22 7 C20.22348795 9.66476807 19.29988696 11.68366199 18.2734375 14.66796875 C17.9640625 15.56064453 17.6546875 16.45332031 17.3359375 17.37304688 C17.01882813 18.30181641 16.70171875 19.23058594 16.375 20.1875 C16.05015625 21.12787109 15.7253125 22.06824219 15.390625 23.03710938 C14.58992448 25.35678589 13.79320965 27.67775352 13 30 C11.68 30 10.36 30 9 30 C7.71248643 26.21165112 6.43090931 22.42135154 5.15478516 18.62915039 C4.71988772 17.33953841 4.28337578 16.05046971 3.84521484 14.76196289 C3.21547426 12.9091547 2.59202743 11.05421111 1.96875 9.19921875 C1.59169922 8.08377686 1.21464844 6.96833496 0.82617188 5.8190918 C0 3 0 3 0 0 Z " fill="#22B9B9" transform="translate(598,903)"/>
<path d="M0 0 C1.32 0 2.64 0 4 0 C5.85626755 3.94874591 7.7075463 7.89977927 9.55419922 11.85302734 C10.18335916 13.1980719 10.81388766 14.54247718 11.44580078 15.88623047 C12.35287658 17.81572451 13.25503611 19.74744993 14.15625 21.6796875 C14.70087891 22.84226074 15.24550781 24.00483398 15.80664062 25.20263672 C17 28 17 28 17 30 C15.125 29.75 15.125 29.75 13 29 C11.27898465 26.41847698 11 25.15081975 11 22 C5.06 22 -0.88 22 -7 22 C-7.33 23.65 -7.66 25.3 -8 27 C-8.66 27.99 -9.32 28.98 -10 30 C-10.99 30 -11.98 30 -13 30 C-11.7023449 25.91635886 -10.1962487 22.05235184 -8.3984375 18.1640625 C-7.66367187 16.56884766 -7.66367187 16.56884766 -6.9140625 14.94140625 C-6.40617188 13.84699219 -5.89828125 12.75257813 -5.375 11.625 C-4.859375 10.50738281 -4.34375 9.38976562 -3.8125 8.23828125 C-2.54446772 5.49087798 -1.2735532 2.7448473 0 0 Z " fill="#24B9B8" transform="translate(796,903)"/>
<path d="M0 0 C0.33 0 0.66 0 1 0 C1 10.56 1 21.12 1 32 C-4.94 32 -10.88 32 -17 32 C-15.48008928 27.44026784 -14.162028 24.25842428 -11.77734375 20.234375 C-11.15666016 19.17992187 -10.53597656 18.12546875 -9.89648438 17.0390625 C-9.25001953 15.95367187 -8.60355469 14.86828125 -7.9375 13.75 C-6.65459074 11.57833596 -5.37202099 9.40647131 -4.08984375 7.234375 C-3.52128662 6.27756836 -2.95272949 5.32076172 -2.36694336 4.33496094 C-1.53517794 2.91417071 -0.7362715 1.47254299 0 0 Z " fill="#0885A0" transform="translate(708,445)"/>
<path d="M0 0 C5.94 0 11.88 0 18 0 C15.50625043 6.23437394 12.27746341 11.89926713 9 17.75 C8.35141267 18.92309426 7.70297372 20.09627057 7.0546875 21.26953125 C6.43851562 22.37167969 5.82234375 23.47382813 5.1875 24.609375 C4.34251953 26.1248291 4.34251953 26.1248291 3.48046875 27.67089844 C2 30 2 30 0 31 C0 20.77 0 10.54 0 0 Z " fill="#0FD1D0" transform="translate(357,278)"/>
<path d="M0 0 C4.37432005 2.22931086 6.93789511 4.90818138 9.01171875 9.3046875 C9.99733234 14.31643963 9.41017318 18.23710106 6.88671875 22.6796875 C4.38070404 26.19370812 2.22251693 28.00905729 -1.98828125 29.3046875 C-8.49964719 30.24508587 -12.72495296 29.22638309 -17.98828125 25.3046875 C-21.27186573 21.7685196 -22.26866384 19.02291956 -22.48828125 14.3046875 C-22.26866384 9.58645544 -21.27186573 6.8408554 -17.98828125 3.3046875 C-12.35822571 -0.89025584 -6.82570587 -2.38698555 0 0 Z M-18.36328125 8.0546875 C-19.81227533 13.27106617 -19.68881782 16.95365269 -17.23828125 21.6796875 C-13.81540948 25.6730379 -12.32691462 26.19844676 -7.05078125 26.6171875 C-3.24834599 26.49725912 -0.97537148 25.79392936 2.01171875 23.3046875 C4.68595499 20.12451467 5.8918192 17.96413504 6.63671875 13.8671875 C5.80772434 9.14191937 3.61528125 6.40848586 0.01171875 3.3046875 C-7.32378553 0.85951941 -13.41091046 1.75167013 -18.36328125 8.0546875 Z " fill="#20BEBD" transform="translate(302.98828125,903.6953125)"/>
<path d="M0 0 C6.93 0 13.86 0 21 0 C21 0.99 21 1.98 21 3 C15.06 3 9.12 3 3 3 C3 6.3 3 9.6 3 13 C8.28 13 13.56 13 19 13 C19 13.99 19 14.98 19 16 C13.72 16 8.44 16 3 16 C3 19.63 3 23.26 3 27 C8.94 27 14.88 27 21 27 C21 27.99 21 28.98 21 30 C14.07 30 7.14 30 0 30 C0 20.1 0 10.2 0 0 Z " fill="#25BDBD" transform="translate(496,903)"/>
<path d="M0 0 C6.6 0 13.2 0 20 0 C20 0.99 20 1.98 20 3 C14.39 3 8.78 3 3 3 C3 6.3 3 9.6 3 13 C7.95 13 12.9 13 18 13 C18 13.99 18 14.98 18 16 C13.05 16 8.1 16 3 16 C3 19.63 3 23.26 3 27 C8.94 27 14.88 27 21 27 C21 27.99 21 28.98 21 30 C14.07 30 7.14 30 0 30 C0 20.1 0 10.2 0 0 Z " fill="#2AC2C2" transform="translate(375,903)"/>
<path d="M0 0 C0.99 0 1.98 0 3 0 C3 4.29 3 8.58 3 13 C9.27 13 15.54 13 22 13 C22 8.71 22 4.42 22 0 C22.99 0 23.98 0 25 0 C25 9.9 25 19.8 25 30 C24.01 30 23.02 30 22 30 C22 25.38 22 20.76 22 16 C15.73 16 9.46 16 3 16 C3 20.62 3 25.24 3 30 C2.01 30 1.02 30 0 30 C0 20.1 0 10.2 0 0 Z " fill="#2BC4C4" transform="translate(719,903)"/>
<path d="M0 0 C0.99 0 1.98 0 3 0 C3 4.29 3 8.58 3 13 C9.27 13 15.54 13 22 13 C22 8.71 22 4.42 22 0 C22.99 0 23.98 0 25 0 C25 9.9 25 19.8 25 30 C24.01 30 23.02 30 22 30 C22 25.38 22 20.76 22 16 C15.73 16 9.46 16 3 16 C3 20.62 3 25.24 3 30 C2.01 30 1.02 30 0 30 C0 20.1 0 10.2 0 0 Z " fill="#29C2C2" transform="translate(450,903)"/>
<path d="M0 0 C10.9947644 -0.48328635 10.9947644 -0.48328635 15.25 1.5625 C17 4 17 4 17.625 7.5 C17 11 17 11 15.25 13.4375 C10.1674438 15.88103663 5.59815683 15.24607283 0 15 C0 10.05 0 5.1 0 0 Z " fill="#0E1B1B" transform="translate(539,906)"/>
<path d="M0 0 C0.804375 0.495 1.60875 0.99 2.4375 1.5 C2.1075 2.49 1.7775 3.48 1.4375 4.5 C0.87933594 4.17644531 0.32117188 3.85289062 -0.25390625 3.51953125 C-4.23504134 1.76136499 -8.29230369 2.05014139 -12.5625 2.5 C-15.51983901 3.73222459 -16.93360863 4.69142538 -18.875 7.1875 C-20.27075988 11.88232868 -20.2384863 15.94523152 -18.3125 20.375 C-15.97374698 23.21491438 -13.95378501 24.35992182 -10.2734375 24.73046875 C-9.50257813 24.71628906 -8.73171875 24.70210937 -7.9375 24.6875 C-6.77347656 24.67783203 -6.77347656 24.67783203 -5.5859375 24.66796875 C-3.4937732 24.62050633 -3.4937732 24.62050633 -1.5625 23.5 C-1.09498212 21.14400765 -1.09498212 21.14400765 -0.9375 18.4375 C-0.86273438 17.51839844 -0.78796875 16.59929688 -0.7109375 15.65234375 C-0.66195313 14.94207031 -0.61296875 14.23179687 -0.5625 13.5 C0.4275 13.5 1.4175 13.5 2.4375 13.5 C2.4375 17.46 2.4375 21.42 2.4375 25.5 C-2.64127148 28.03938574 -6.86050634 29.49897133 -12.5625 28.5 C-16.56354025 27.06060137 -19.11653573 24.98026922 -22 21.875 C-24.12299459 17.28933169 -24.34781421 13.47095798 -23.5625 8.5 C-21.51398998 4.07521836 -18.93386215 1.4373778 -14.5546875 -0.80859375 C-9.42426037 -2.58915375 -4.92841339 -2.07512143 0 0 Z " fill="#23BCBC" transform="translate(351.5625,904.5)"/>
<path d="M0 0 C7.59 0 15.18 0 23 0 C23.33 1.32 23.66 2.64 24 4 C23 5 23 5 19.18359375 5.09765625 C17.60153318 5.09098089 16.01948841 5.07901875 14.4375 5.0625 C13.63119141 5.05798828 12.82488281 5.05347656 11.99414062 5.04882812 C9.99606244 5.03700518 7.99802217 5.01906914 6 5 C6 7.64 6 10.28 6 13 C10.95 13 15.9 13 21 13 C21 14.65 21 16.3 21 18 C20 19 20 19 16.83984375 19.09765625 C15.55207031 19.08605469 14.26429688 19.07445312 12.9375 19.0625 C11.64714844 19.05347656 10.35679687 19.04445313 9.02734375 19.03515625 C8.02832031 19.02355469 7.02929688 19.01195312 6 19 C6 21.64 6 24.28 6 27 C11.28 27 16.56 27 22 27 C22.33 28.65 22.66 30.3 23 32 C15.41 32 7.82 32 0 32 C0 21.44 0 10.88 0 0 Z M1 1 C1 10.9 1 20.8 1 31 C7.93 31 14.86 31 22 31 C22 30.01 22 29.02 22 28 C16.06 28 10.12 28 4 28 C4 24.37 4 20.74 4 17 C9.28 17 14.56 17 20 17 C20 16.01 20 15.02 20 14 C14.72 14 9.44 14 4 14 C4 10.7 4 7.4 4 4 C9.94 4 15.88 4 22 4 C22 3.01 22 2.02 22 1 C15.07 1 8.14 1 1 1 Z " fill="#002A2A" transform="translate(495,902)"/>
<path d="M0 0 C7.92 0 15.84 0 24 0 C24 0.99 24 1.98 24 3 C20.37 3 16.74 3 13 3 C13 11.91 13 20.82 13 30 C12.01 30 11.02 30 10 30 C10 21.09 10 12.18 10 3 C6.7 3 3.4 3 0 3 C0 2.01 0 1.02 0 0 Z " fill="#24BFC0" transform="translate(410,903)"/>
<path d="M0 0 C7.92 0 15.84 0 24 0 C24 0.99 24 1.98 24 3 C20.37 3 16.74 3 13 3 C13 11.91 13 20.82 13 30 C12.01 30 11.02 30 10 30 C10 21.09 10 12.18 10 3 C6.7 3 3.4 3 0 3 C0 2.01 0 1.02 0 0 Z " fill="#27BEBE" transform="translate(243,903)"/>
<path d="M0 0 C7.92 0 15.84 0 24 0 C24 0.99 24 1.98 24 3 C20.37 3 16.74 3 13 3 C13 11.91 13 20.82 13 30 C12.01 30 11.02 30 10 30 C10 21.09 10 12.18 10 3 C6.7 3 3.4 3 0 3 C0 2.01 0 1.02 0 0 Z " fill="#27BEBE" transform="translate(679,903)"/>
<path d="M0 0 C23.43 0 46.86 0 71 0 C69 5 69 5 67 7 C67 5.68 67 4.36 67 3 C33.34 2.505 33.34 2.505 -1 2 C-0.67 1.34 -0.34 0.68 0 0 Z " fill="#21B3B3" transform="translate(570,377)"/>
<path d="M0 0 C23.43 0 46.86 0 71 0 C71.99 2.475 71.99 2.475 73 5 C72.01 4.505 72.01 4.505 71 4 C71 3.34 71 2.68 71 2 C36.35 2.495 36.35 2.495 1 3 C0.67 2.01 0.34 1.02 0 0 Z " fill="#22B3B3" transform="translate(357,377)"/>
<path d="M0 0 C2.2477975 2.05233685 3.0022242 3.00667261 4 6 C-19.43 6 -42.86 6 -67 6 C-67 5.34 -67 4.68 -67 4 C-44.56 4 -22.12 4 1 4 C0.505 2.02 0.505 2.02 0 0 Z " fill="#032121" transform="translate(637,371)"/>
<path d="M0 0 C0.36491043 0.65252747 0.72982086 1.30505493 1.10578918 1.97735596 C0.77578918 2.63735596 0.44578918 3.29735596 0.10578918 3.97735596 C-0.88421082 2.98735596 -0.88421082 2.98735596 -1.89421082 1.97735596 C-4.56387196 1.64514195 -4.56387196 1.64514195 -7.72087097 1.6585083 C-9.55254318 1.62870377 -9.55254318 1.62870377 -11.42121887 1.59829712 C-12.75856851 1.58641988 -14.09592007 1.57475707 -15.43327332 1.56329346 C-16.79806194 1.54458846 -18.16283892 1.52501556 -19.52760315 1.50460815 C-23.12127324 1.45320991 -26.71498087 1.41362568 -30.30882263 1.37646484 C-33.97540121 1.33647317 -37.64182267 1.28535886 -41.30827332 1.23516846 C-48.50347814 1.13831822 -55.69875877 1.05394289 -62.89421082 0.97735596 C-63.22421082 2.29735596 -63.55421082 3.61735596 -63.89421082 4.97735596 C-64.88421082 2.99735596 -65.87421082 1.01735596 -66.89421082 -1.02264404 C-58.47149999 -1.24592357 -50.0486713 -1.44742436 -41.6248045 -1.62104416 C-37.71335927 -1.70234733 -33.80238594 -1.79117839 -29.89152527 -1.89715576 C-26.11814456 -1.99913162 -22.34480353 -2.08140813 -18.57067299 -2.14997101 C-17.12999572 -2.17961856 -15.68944713 -2.21639405 -14.24913597 -2.26036835 C-12.23376009 -2.32068905 -10.21761634 -2.35345932 -8.20158386 -2.38494873 C-6.47949959 -2.42491974 -6.47949959 -2.42491974 -4.72262573 -2.46569824 C-1.89421082 -2.02264404 -1.89421082 -2.02264404 0 0 Z " fill="#27C0C0" transform="translate(483.8942108154297,506.02264404296875)"/>
<path d="M0 0 C1.32 0 2.64 0 4 0 C4 9.9 4 19.8 4 30 C2.68 30 1.36 30 0 30 C0 20.1 0 10.2 0 0 Z " fill="#20A8A7" transform="translate(829,903)"/>
<path d="M0 0 C17.82 0 35.64 0 54 0 C54.495 2.475 54.495 2.475 55 5 C53.68 5.99 52.36 6.98 51 8 C51.66 6.02 52.32 4.04 53 2 C35.51 2 18.02 2 0 2 C0 1.34 0 0.68 0 0 Z " fill="#003737" transform="translate(384,291)"/>
<path d="M0 0 C0.99 0 1.98 0 3 0 C3 0.99 3 1.98 3 3 C7.62 3 12.24 3 17 3 C17.33 2.01 17.66 1.02 18 0 C18.66 0 19.32 0 20 0 C20.83790789 1.78953185 21.67019396 3.58169695 22.5 5.375 C22.9640625 6.37273438 23.428125 7.37046875 23.90625 8.3984375 C25 11 25 11 25 13 C23.125 12.75 23.125 12.75 21 12 C19.27898465 9.41847698 19 8.15081975 19 5 C13.06 5 7.12 5 1 5 C0.67 6.65 0.34 8.3 0 10 C-0.99 11.485 -0.99 11.485 -2 13 C-2.99 13 -3.98 13 -5 13 C-3.58192622 8.52761347 -1.88695626 4.28853694 0 0 Z " fill="#20C9C9" transform="translate(788,920)"/>
<path d="M0 0 C2.5 0.125 2.5 0.125 3.5 1.125 C3.60023409 3.39274891 3.63081341 5.66363163 3.6328125 7.93359375 C3.63376923 8.61551285 3.63472595 9.29743195 3.63571167 10.00001526 C3.63639339 11.44507947 3.63453969 12.89014672 3.63037109 14.33520508 C3.62503084 16.54971193 3.63031205 18.76401519 3.63671875 20.97851562 C3.63605781 22.38020878 3.63477631 23.78190181 3.6328125 25.18359375 C3.63168457 26.46548584 3.63055664 27.74737793 3.62939453 29.06811523 C3.5 32.125 3.5 32.125 2.5 34.125 C0.83388095 34.167721 -0.83382885 34.16563832 -2.5 34.125 C-4.17673649 32.44826351 -3.62787817 30.39644924 -3.63894653 28.15844727 C-3.6369223 27.46678467 -3.63489807 26.77512207 -3.6328125 26.0625 C-3.63376923 25.35601318 -3.63472595 24.64952637 -3.63571167 23.92163086 C-3.63639333 22.42529207 -3.63454005 20.92895033 -3.63037109 19.43261719 C-3.62502257 17.13469843 -3.63031651 14.83697514 -3.63671875 12.5390625 C-3.63605797 11.08854123 -3.6347768 9.63802009 -3.6328125 8.1875 C-3.63483673 7.4958374 -3.63686096 6.8041748 -3.63894653 6.09155273 C-3.60971249 0.18048562 -3.60971249 0.18048562 0 0 Z M-1.5 2.125 C-1.5 12.025 -1.5 21.925 -1.5 32.125 C-0.18 32.125 1.14 32.125 2.5 32.125 C2.5 22.225 2.5 12.325 2.5 2.125 C1.18 2.125 -0.14 2.125 -1.5 2.125 Z " fill="#031F1F" transform="translate(830.5,900.875)"/>
<path d="M0 0 C0 0.66 0 1.32 0 2 C-0.67546875 2.09796875 -1.3509375 2.1959375 -2.046875 2.296875 C-8.97857419 3.36108138 -8.97857419 3.36108138 -14 8 C-15.60787839 11.21575678 -15.48211971 14.5124587 -15 18 C-13.89230862 20.57816377 -12.56739499 22.64890752 -11 25 C-12.32 25 -13.64 25 -15 25 C-18.338258 21.47628323 -19.29507975 18.84490012 -19.5 14 C-19.29551484 9.31094378 -18.20396186 6.55033611 -15 3 C-10.53657144 -0.93831932 -5.62668269 -0.29499113 0 0 Z " fill="#22C3C3" transform="translate(300,904)"/>
<path d="M0 0 C5.61 0 11.22 0 17 0 C17 0.33 17 0.66 17 1 C11.72 1 6.44 1 1 1 C1 3.64 1 6.28 1 9 C5.95 9 10.9 9 16 9 C16.33 10.65 16.66 12.3 17 14 C16 15 16 15 12.62109375 15.09765625 C11.22652923 15.09098369 9.83198257 15.07902532 8.4375 15.0625 C7.37112305 15.05573242 7.37112305 15.05573242 6.28320312 15.04882812 C4.52209987 15.03700864 2.76103964 15.01907263 1 15 C1 17.64 1 20.28 1 23 C6.61 23 12.22 23 18 23 C18 23.33 18 23.66 18 24 C12.06 24 6.12 24 0 24 C0 20.37 0 16.74 0 13 C4.95 13 9.9 13 15 13 C15 12.01 15 11.02 15 10 C10.05 10 5.1 10 0 10 C0 6.7 0 3.4 0 0 Z " fill="#002323" transform="translate(378,906)"/>
<path d="M0 0 C0.66 0 1.32 0 2 0 C2.84026396 1.76755526 3.67198722 3.53917263 4.5 5.3125 C4.9640625 6.29863281 5.428125 7.28476562 5.90625 8.30078125 C7 11 7 11 7 14 C3.04 14 -0.92 14 -5 14 C-4.46515599 8.65155992 -2.53309233 4.64203897 0 0 Z " fill="#0C1F1F" transform="translate(797,908)"/>
<path d="M0 0 C0.33 0 0.66 0 1 0 C1 3.3 1 6.6 1 10 C5.95 10 10.9 10 16 10 C16 10.99 16 11.98 16 13 C11.05 13 6.1 13 1 13 C1 16.63 1 20.26 1 24 C6.94 24 12.88 24 19 24 C18.67 24.99 18.34 25.98 18 27 C18 26.34 18 25.68 18 25 C11.73 25 5.46 25 -1 25 C-1.07664437 16.56911952 -1.10319185 8.37243814 0 0 Z " fill="#1EB5B5" transform="translate(377,906)"/>
<path d="M0 0 C1.5631897 0.00785522 1.5631897 0.00785522 3.15795898 0.01586914 C4.28266602 0.0190918 5.40737305 0.02231445 6.56616211 0.02563477 C7.75016602 0.03401367 8.93416992 0.04239258 10.15405273 0.05102539 C11.34192383 0.05553711 12.52979492 0.06004883 13.75366211 0.06469727 C16.69967499 0.07652864 19.64558954 0.09301252 22.59155273 0.11352539 C22.92155273 1.76352539 23.25155273 3.41352539 23.59155273 5.11352539 C23.26155273 4.12352539 22.93155273 3.13352539 22.59155273 2.11352539 C14.67155273 2.11352539 6.75155273 2.11352539 -1.40844727 2.11352539 C-1.40844727 3.10352539 -1.40844727 4.09352539 -1.40844727 5.11352539 C1.89155273 5.11352539 5.19155273 5.11352539 8.59155273 5.11352539 C8.59155273 14.02352539 8.59155273 22.93352539 8.59155273 32.11352539 C8.26155273 32.11352539 7.93155273 32.11352539 7.59155273 32.11352539 C7.59155273 23.53352539 7.59155273 14.95352539 7.59155273 6.11352539 C4.29155273 6.11352539 0.99155273 6.11352539 -2.40844727 6.11352539 C-2.79063494 4.45737882 -3.12239828 2.78895515 -3.40844727 1.11352539 C-2.40844727 0.11352539 -2.40844727 0.11352539 0 0 Z " fill="#022424" transform="translate(411.408447265625,900.886474609375)"/>
<path d="M0 0 C0.99 0 1.98 0 3 0 C3 9.9 3 19.8 3 30 C2.01 30 1.02 30 0 30 C0 20.1 0 10.2 0 0 Z " fill="#28C3C3" transform="translate(659,903)"/>
<path d="M0 0 C23.76 0 47.52 0 72 0 C72 0.99 72 1.98 72 3 C71.505 2.505 71.505 2.505 71 2 C68.82268611 1.87598086 66.64136546 1.8219849 64.46069336 1.79467773 C63.77779739 1.78477814 63.09490143 1.77487854 62.39131165 1.76467896 C60.12419147 1.73298065 57.85705031 1.70827387 55.58984375 1.68359375 C54.02184999 1.6630314 52.45386187 1.64203512 50.88587952 1.62062073 C46.75129752 1.56532576 42.61666489 1.51594938 38.48199463 1.46777344 C34.26594517 1.41761247 30.04996957 1.36189826 25.83398438 1.30664062 C17.55605197 1.1989683 9.27805792 1.09754365 1 1 C0.896875 1.61875 0.79375 2.2375 0.6875 2.875 C0 5 0 5 -3 7 C-1.125 2.25 -1.125 2.25 0 0 Z " fill="#001E24" transform="translate(534,316)"/>
<path d="M0 0 C0.99 0 1.98 0 3 0 C1.68764148 6.36430174 -0.01219415 12.42121028 -2.125 18.5625 C-2.40214844 19.38041016 -2.67929687 20.19832031 -2.96484375 21.04101562 C-3.63905137 23.02876568 -4.31892204 25.01459349 -5 27 C-5.33 27 -5.66 27 -6 27 C-7.66019787 20.38642488 -5.95189561 15.81272693 -3.5625 9.5625 C-3.05493164 8.17901367 -3.05493164 8.17901367 -2.53710938 6.76757812 C-1.70519403 4.50617444 -0.85933525 2.25109512 0 0 Z " fill="#21B0B0" transform="translate(638,903)"/>
<path d="M0 0 C4.62 0 9.24 0 14 0 C14 0.66 14 1.32 14 2 C10.04 2 6.08 2 2 2 C2 10.58 2 19.16 2 28 C1.34 28 0.68 28 0 28 C0 18.76 0 9.52 0 0 Z " fill="#1CC9C9" transform="translate(536,904)"/>
<path d="M0 0 C0.33 0.66 0.66 1.32 1 2 C0.67 2.66 0.34 3.32 0 4 C19.14 4 38.28 4 58 4 C58.33 2.68 58.66 1.36 59 0 C59.66 1.65 60.32 3.3 61 5 C40.21 5 19.42 5 -2 5 C-1.34 3.35 -0.68 1.7 0 0 Z " fill="#D8FDFE" transform="translate(541,260)"/>
<path d="M0 0 C3 1 3 1 5 4 C5.1953125 6.26171875 5.1953125 6.26171875 5.125 8.6875 C5.10695313 9.49574219 5.08890625 10.30398438 5.0703125 11.13671875 C5.03550781 12.05904297 5.03550781 12.05904297 5 13 C4.34 13 3.68 13 3 13 C3 13.99 3 14.98 3 16 C2.34 16 1.68 16 1 16 C1.32960216 21.01535052 1.32960216 21.01535052 4 25 C4 26.32 4 27.64 4 29 C1.75 29.3125 1.75 29.3125 -1 29 C-3.3125 26.5 -3.3125 26.5 -5 24 C-4.67 23.34 -4.34 22.68 -4 22 C-3.1028125 23.2065625 -3.1028125 23.2065625 -2.1875 24.4375 C-0.19052724 27.22327984 -0.19052724 27.22327984 3 28 C2.566875 27.45730469 2.13375 26.91460938 1.6875 26.35546875 C1.130625 25.64003906 0.57375 24.92460938 0 24.1875 C-0.556875 23.47980469 -1.11375 22.77210938 -1.6875 22.04296875 C-3 20 -3 20 -3 17 C-2.175 16.278125 -1.35 15.55625 -0.5 14.8125 C2.07194221 11.91906501 2.37741383 11.52931761 2.4375 7.9375 C2.07039107 4.63351966 1.80825904 2.71238857 0 0 Z " fill="#022D2D" transform="translate(556,905)"/>
<path d="M0 0 C3.63 0 7.26 0 11 0 C11 0.33 11 0.66 11 1 C8.03 1 5.06 1 2 1 C2 9.91 2 18.82 2 28 C0.35 28.33 -1.3 28.66 -3 29 C-3 28.34 -3 27.68 -3 27 C-2.01 27 -1.02 27 0 27 C0 18.09 0 9.18 0 0 Z " fill="#003737" transform="translate(423,906)"/>
<path d="M0 0 C0.625 1.8125 0.625 1.8125 1 4 C0.01 5.485 0.01 5.485 -1 7 C15.5 7 32 7 49 7 C49 7.33 49 7.66 49 8 C31.84 8 14.68 8 -3 8 C-2 3 -2 3 0 0 Z " fill="#1A7D94" transform="translate(632,454)"/>
<path d="M0 0 C0.33 0 0.66 0 1 0 C1 10.56 1 21.12 1 32 C-4.94 32 -10.88 32 -17 32 C-16.67 31.34 -16.34 30.68 -16 30 C-10.72 30.33 -5.44 30.66 0 31 C-0.495 19.12 -0.495 19.12 -1 7 C-1.66 8.32 -2.32 9.64 -3 11 C-3.66 11 -4.32 11 -5 11 C-3.55049545 7.2089881 -1.84827434 3.6125362 0 0 Z " fill="#207385" transform="translate(708,445)"/>
<path d="M0 0 C4.12780268 0.59084234 6.39893536 2.70793795 9.3046875 5.53515625 C11.48599934 9.08988666 11.50597773 11.17483444 10.9921875 15.28515625 C9.4921875 18.22265625 9.4921875 18.22265625 7.9921875 20.28515625 C7.6621875 19.29515625 7.3321875 18.30515625 6.9921875 17.28515625 C7.3221875 16.95515625 7.6521875 16.62515625 7.9921875 16.28515625 C8.23039671 14.25245063 8.23039671 14.25245063 8.2421875 11.91015625 C8.26796875 11.11867188 8.29375 10.3271875 8.3203125 9.51171875 C7.91729679 6.77696927 7.1151271 5.98868583 4.9921875 4.28515625 C0.99848641 1.75581223 -2.26823654 1.9758983 -6.8203125 2.78515625 C-7.5421875 2.95015625 -8.2640625 3.11515625 -9.0078125 3.28515625 C-6.68427763 -0.20014606 -3.99345581 -0.1682225 0 0 Z " fill="#023535" transform="translate(298.0078125,905.71484375)"/>
<path d="M0 0 C5.94 0 11.88 0 18 0 C18 0.66 18 1.32 18 2 C16.33710937 2.00386719 16.33710937 2.00386719 14.640625 2.0078125 C13.17704318 2.04534024 11.71350226 2.08448783 10.25 2.125 C9.52039063 2.12242187 8.79078125 2.11984375 8.0390625 2.1171875 C5.57978402 2.14680297 5.57978402 2.14680297 2 3 C-0.37918503 5.92178674 -0.37918503 5.92178674 -2 9 C-4.75 9.375 -4.75 9.375 -7 9 C-6.67 8.34 -6.34 7.68 -6 7 C-5.01 7 -4.02 7 -3 7 C-2.01 4.69 -1.02 2.38 0 0 Z " fill="#012B2B" transform="translate(789,925)"/>
<path d="M0 0 C0.33 0 0.66 0 1 0 C1 8.91 1 17.82 1 27 C0.67 27 0.34 27 0 27 C-0.06058594 26.24074219 -0.12117187 25.48148438 -0.18359375 24.69921875 C-0.30927734 23.20841797 -0.30927734 23.20841797 -0.4375 21.6875 C-0.51871094 20.70136719 -0.59992187 19.71523438 -0.68359375 18.69921875 C-0.91812559 15.90624401 -0.91812559 15.90624401 -2 13 C-7.94 13 -13.88 13 -20 13 C-20 12.67 -20 12.34 -20 12 C-13.4 12 -6.8 12 0 12 C0 8.04 0 4.08 0 0 Z " fill="#14C2C2" transform="translate(742,904)"/>
<path d="M0 0 C1.56073255 2.34109882 2.86373867 4.56333403 4.125 7.0625 C4.47820313 7.75472656 4.83140625 8.44695313 5.1953125 9.16015625 C6 11 6 11 6 13 C4.125 12.75 4.125 12.75 2 12 C0.27898465 9.41847698 0 8.15081975 0 5 C-5.61 5 -11.22 5 -17 5 C-17 4.67 -17 4.34 -17 4 C-11.39 4 -5.78 4 0 4 C0 2.68 0 1.36 0 0 Z " fill="#2FBBBB" transform="translate(807,920)"/>
<path d="M0 0 C6.27 0 12.54 0 19 0 C19 4 19 4 18 7 C17.34 7 16.68 7 16 7 C16 8.32 16 9.64 16 11 C15.34 11 14.68 11 14 11 C13.8453125 11.928125 13.8453125 11.928125 13.6875 12.875 C13 15 13 15 10 17 C12.12610309 11.35447383 15.07908729 6.27034249 18 1 C12.06 1 6.12 1 0 1 C0 0.67 0 0.34 0 0 Z " fill="#043737" transform="translate(357,277)"/>
<path d="M0 0 C0.33 0 0.66 0 1 0 C1.08090971 1.62418745 1.13914995 3.24951745 1.1875 4.875 C1.23970703 6.23238281 1.23970703 6.23238281 1.29296875 7.6171875 C1.19628906 8.40351562 1.09960938 9.18984375 1 10 C-3.02743661 12.68495774 -6.26867516 12.57173628 -11 12 C-14.0625 10.5 -14.0625 10.5 -16 9 C-15.34 8.67 -14.68 8.34 -14 8 C-13.236875 8.309375 -12.47375 8.61875 -11.6875 8.9375 C-7.36392611 10.64681991 -4.47578695 10.11894674 0 9 C0 6.03 0 3.06 0 0 Z " fill="#023333" transform="translate(350,918)"/>
<path d="M0 0 C6.65545792 -0.54330269 10.45834744 0.22695996 16 4 C15.67 5.32 15.34 6.64 15 8 C11.535 6.02 11.535 6.02 8 4 C8 3.01 8 2.02 8 1 C5.36 1 2.72 1 0 1 C0 0.67 0 0.34 0 0 Z " fill="#24B3B3" transform="translate(292,903)"/>
<path d="M0 0 C0.625 1.8125 0.625 1.8125 1 4 C0.01 5.485 0.01 5.485 -1 7 C-1.66 7 -2.32 7 -3 7 C-3.061875 7.721875 -3.12375 8.44375 -3.1875 9.1875 C-4.24456647 12.84657625 -6.20550071 14.49211602 -9 17 C-7.68925635 12.53817564 -5.92933989 9.00381243 -3.375 5.125 C-2.74335937 4.15820312 -2.11171875 3.19140625 -1.4609375 2.1953125 C-0.73777344 1.10863281 -0.73777344 1.10863281 0 0 Z " fill="#1BC2C1" transform="translate(546,419)"/>
<path d="M0 0 C0.66 0 1.32 0 2 0 C1.67 2.64 1.34 5.28 1 8 C7.435 7.505 7.435 7.505 14 7 C14 7.66 14 8.32 14 9 C9.38 9 4.76 9 0 9 C0 8.01 0 7.02 0 6 C-0.66 6 -1.32 6 -2 6 C-1.34 4.02 -0.68 2.04 0 0 Z " fill="#139F9F" transform="translate(791,914)"/>
<path d="M0 0 C2.6465335 2.6465335 3.59941997 5.56221264 5 9 C5.66 7.35 6.32 5.7 7 4 C8.13643966 7.40931897 7.86747764 8.00335456 6.5625 11.1875 C6.27503906 11.90292969 5.98757813 12.61835937 5.69140625 13.35546875 C5.46324219 13.89816406 5.23507812 14.44085937 5 15 C3.25050228 12.37575342 2.34610019 10.44272784 1.375 7.5 C0.98441406 6.33984375 0.98441406 6.33984375 0.5859375 5.15625 C0 3 0 3 0 0 Z " fill="#012C2B" transform="translate(625,913)"/>
<path d="M0 0 C0.33 0 0.66 0 1 0 C1.06058594 0.83144531 1.12117188 1.66289063 1.18359375 2.51953125 C1.26738281 3.60621094 1.35117187 4.69289063 1.4375 5.8125 C1.51871094 6.89144531 1.59992188 7.97039063 1.68359375 9.08203125 C1.90212461 12.05989905 1.90212461 12.05989905 3 15 C2.34 15 1.68 15 1 15 C1 19.29 1 23.58 1 28 C0.67 28 0.34 28 0 28 C0 18.76 0 9.52 0 0 Z " fill="#14D1D1" transform="translate(451,904)"/>
<path d="M0 0 C0.33 0 0.66 0 1 0 C1 7.59 1 15.18 1 23 C1.66 23 2.32 23 3 23 C2.34 24.32 1.68 25.64 1 27 C0 26 0 26 -0.11352539 23.49975586 C-0.10828857 22.41573486 -0.10305176 21.33171387 -0.09765625 20.21484375 C-0.09443359 19.04501953 -0.09121094 17.87519531 -0.08789062 16.66992188 C-0.07951172 15.43822266 -0.07113281 14.20652344 -0.0625 12.9375 C-0.05798828 11.70193359 -0.05347656 10.46636719 -0.04882812 9.19335938 C-0.03699608 6.12885883 -0.02051173 3.06445279 0 0 Z " fill="#14CFCF" transform="translate(358,279)"/>
<path d="M0 0 C0.99 0 1.98 0 3 0 C3 0.99 3 1.98 3 3 C2.34 3 1.68 3 1 3 C0.01 5.97 -0.98 8.94 -2 12 C-4 8 -4 8 -3.3203125 5.859375 C-2.92585937 5.16328125 -2.53140625 4.4671875 -2.125 3.75 C-1.73570312 3.04359375 -1.34640625 2.3371875 -0.9453125 1.609375 C-0.63335938 1.07828125 -0.32140625 0.5471875 0 0 Z " fill="#1FC0BF" transform="translate(796,904)"/>
<path d="M0 0 C1.62752231 0.25523874 3.25203196 0.52974494 4.875 0.8125 C6.23238281 1.03873047 6.23238281 1.03873047 7.6171875 1.26953125 C10 2 10 2 12 5 C10.58376784 5.05447047 9.16691809 5.09300508 7.75 5.125 C6.96109375 5.14820313 6.1721875 5.17140625 5.359375 5.1953125 C2.79268059 4.9828378 1.2083933 4.28654105 -1 3 C-0.67 2.01 -0.34 1.02 0 0 Z " fill="#24B4B4" transform="translate(289,928)"/>
<path d="M0 0 C0.66 0 1.32 0 2 0 C2.66 0.66 3.32 1.32 4 2 C4.33 2 4.66 2 5 2 C5 3.98 5 5.96 5 8 C3.68 8 2.36 8 1 8 C0.67 5.36 0.34 2.72 0 0 Z " fill="#1FC7C7" transform="translate(606,925)"/>
<path d="M0 0 C3.96359827 -0.31087045 6.38933056 -0.32482417 9.9375 1.5625 C12 4 12 4 12.5 7.625 C12.335 8.73875 12.17 9.8525 12 11 C11.01 11.66 10.02 12.32 9 13 C9 11.68 9 10.36 9 9 C9.66 9 10.32 9 11 9 C9.75023244 5.34683329 9.32901247 4.21934164 6 2 C4.0103005 1.60986284 2.00980131 1.26797351 0 1 C0 0.67 0 0.34 0 0 Z " fill="#033536" transform="translate(544,906)"/>
<path d="M0 0 C1.5778125 0.495 1.5778125 0.495 3.1875 1 C8.98549442 2.52078542 12.39202979 2.08668659 18 0 C16 3 16 3 13 4 C7.63299536 4.34625836 4.40280342 4.43969017 0 1 C0 0.67 0 0.34 0 0 Z " fill="#023232" transform="translate(287,926)"/>
<path d="M0 0 C0.66 0.66 1.32 1.32 2 2 C1.64700993 5.44165321 0.95418308 7.06872538 -1 10 C-1.99 10 -2.98 10 -4 10 C-2.8905928 6.51329166 -1.73662334 3.22515763 0 0 Z " fill="#28B8B8" transform="translate(787,923)"/>
<path d="M0 0 C4.4062186 1.34634457 6.43077702 3.19374374 9 7 C9 7.66 9 8.32 9 9 C6.48717169 8.61341103 5.27457658 8.29480854 3.515625 6.40625 C3.09796875 5.7771875 2.6803125 5.148125 2.25 4.5 C1.82203125 3.8709375 1.3940625 3.241875 0.953125 2.59375 C0 1 0 1 0 0 Z " fill="#2AB8B7" transform="translate(550,924)"/>
<path d="M0 0 C2.7714638 0.26920269 4.99386387 0.92667531 7.453125 2.23828125 C7.453125 2.89828125 7.453125 3.55828125 7.453125 4.23828125 C1.578125 3.36328125 1.578125 3.36328125 0.453125 2.23828125 C-3.38006729 2.06404524 -6.81523186 2.36024757 -10.546875 3.23828125 C-7.44177938 -0.60757247 -4.65844407 -0.12940122 0 0 Z " fill="#033434" transform="translate(346.546875,905.76171875)"/>
<path d="M0 0 C0.625 1.8125 0.625 1.8125 1 4 C0.01 5.485 0.01 5.485 -1 7 C-1.66 7 -2.32 7 -3 7 C-3.2165625 8.175625 -3.2165625 8.175625 -3.4375 9.375 C-4 12 -4 12 -5 14 C-5.66 14 -6.32 14 -7 14 C-5.53967505 8.68972746 -3.01679014 4.53669968 0 0 Z " fill="#1BC3C3" transform="translate(554,405)"/>
<path d="M0 0 C0.33 1.32 0.66 2.64 1 4 C0.34 4 -0.32 4 -1 4 C-1.061875 4.721875 -1.12375 5.44375 -1.1875 6.1875 C-2.24456647 9.84657625 -4.20550071 11.49211602 -7 14 C-5.53967505 8.68972746 -3.01679014 4.53669968 0 0 Z " fill="#032C2C" transform="translate(592,462)"/>
<path d="M0 0 C1.5 1.375 1.5 1.375 3 3 C3 3.66 3 4.32 3 5 C1.68 4.67 0.36 4.34 -1 4 C-1.103125 4.61875 -1.20625 5.2375 -1.3125 5.875 C-2 8 -2 8 -5 10 C-3.66511872 6.40608886 -2.03977277 3.24509304 0 0 Z " fill="#17778C" transform="translate(570,113)"/>
<path d="M0 0 C0.99 0 1.98 0 3 0 C3 2.64 3 5.28 3 8 C2.01 8 1.02 8 0 8 C0 5.36 0 2.72 0 0 Z " fill="#23C3C3" transform="translate(556,909)"/>
<path d="M0 0 C3.875 0.875 3.875 0.875 5 2 C5.04080783 3.99958364 5.04254356 6.00045254 5 8 C4.34 8 3.68 8 3 8 C2.67 6.35 2.34 4.7 2 3 C1.34 3 0.68 3 0 3 C0 2.01 0 1.02 0 0 Z " fill="#1AC8C7" transform="translate(618,905)"/>
<path d="M0 0 C0.625 1.8125 0.625 1.8125 1 4 C0.01 5.485 0.01 5.485 -1 7 C-1.66 7 -2.32 7 -3 7 C-3 8.32 -3 9.64 -3 11 C-3.99 11.33 -4.98 11.66 -6 12 C-4.68139111 7.38486888 -2.78644563 3.90102388 0 0 Z " fill="#032D2D" transform="translate(508,628)"/>
<path d="M0 0 C0.625 1.8125 0.625 1.8125 1 4 C0.01 5.485 0.01 5.485 -1 7 C-1.66 7 -2.32 7 -3 7 C-3 8.32 -3 9.64 -3 11 C-3.99 11.33 -4.98 11.66 -6 12 C-4.68139111 7.38486888 -2.78644563 3.90102388 0 0 Z " fill="#032F2F" transform="translate(550,556)"/>
<path d="M0 0 C1.24546405 2.49092811 0.7767578 3.41080733 0 6 C-0.66 6 -1.32 6 -2 6 C-2.103125 6.61875 -2.20625 7.2375 -2.3125 7.875 C-3 10 -3 10 -6 12 C-4.68139111 7.38486888 -2.78644563 3.90102388 0 0 Z " fill="#032F2F" transform="translate(529,592)"/>
<path d="M0 0 C0.33 0.66 0.66 1.32 1 2 C-0.55599625 6.50419967 -1.81168455 9.5447806 -6 12 C-4.43358249 7.69235185 -2.31663844 3.93828536 0 0 Z " fill="#032C2C" transform="translate(543,568)"/>
<path d="M0 0 C0.94552734 0.16242187 0.94552734 0.16242187 1.91015625 0.328125 C2.57015625 1.318125 3.23015625 2.308125 3.91015625 3.328125 C2.65203125 3.369375 1.39390625 3.410625 0.09765625 3.453125 C-0.61003906 3.47632813 -1.31773437 3.49953125 -2.046875 3.5234375 C-4.08984375 3.328125 -4.08984375 3.328125 -7.08984375 1.328125 C-5.19856033 -0.56315842 -2.51916649 0.0914398 0 0 Z " fill="#23B5B5" transform="translate(343.08984375,929.671875)"/>
<path d="M0 0 C2 1 2 1 3 3 C1.33333333 4.66666667 -0.33333333 6.33333333 -2 8 C-2 7.34 -2 6.68 -2 6 C-2.66 5.67 -3.32 5.34 -4 5 C-2.68 3.35 -1.36 1.7 0 0 Z " fill="#22B8B7" transform="translate(286,906)"/>
<path d="M0 0 C1.24546405 2.49092811 0.7767578 3.41080733 0 6 C-0.66 6 -1.32 6 -2 6 C-2.103125 6.61875 -2.20625 7.2375 -2.3125 7.875 C-3 10 -3 10 -6 12 C-4.43358249 7.69235185 -2.31663844 3.93828536 0 0 Z " fill="#032E2E" transform="translate(571,520)"/>
<path d="M0 0 C1.24546405 2.49092811 0.7767578 3.41080733 0 6 C-0.66 6 -1.32 6 -2 6 C-2.103125 6.61875 -2.20625 7.2375 -2.3125 7.875 C-3 10 -3 10 -6 12 C-4.43358249 7.69235185 -2.31663844 3.93828536 0 0 Z " fill="#032F2E" transform="translate(599,450)"/>
<path d="M0 0 C1.24546405 2.49092811 0.7767578 3.41080733 0 6 C-0.66 6 -1.32 6 -2 6 C-2.103125 6.61875 -2.20625 7.2375 -2.3125 7.875 C-3 10 -3 10 -6 12 C-4.43358249 7.69235185 -2.31663844 3.93828536 0 0 Z " fill="#1CC0C0" transform="translate(381,299)"/>
<path d="M0 0 C0.33 0.66 0.66 1.32 1 2 C0.328125 3.875 0.328125 3.875 -0.75 6 C-1.26820313 7.051875 -1.26820313 7.051875 -1.796875 8.125 C-3 10 -3 10 -6 12 C-4.43358249 7.69235185 -2.31663844 3.93828536 0 0 Z " fill="#15768C" transform="translate(651,421)"/>
<path d="M0 0 C0.33 0 0.66 0 1 0 C1 2.64 1 5.28 1 8 C-0.32 8 -1.64 8 -3 8 C-3 6.68 -3 5.36 -3 4 C-2.01 4 -1.02 4 0 4 C0 2.68 0 1.36 0 0 Z " fill="#22C7C7" transform="translate(631,925)"/>
<path d="M0 0 C0.33 1.32 0.66 2.64 1 4 C0.34 4 -0.32 4 -1 4 C-1 6.64 -1 9.28 -1 12 C-1.33 12 -1.66 12 -2 12 C-2.24954005 10.56589632 -2.47392642 9.12739928 -2.6875 7.6875 C-2.81511719 6.88699219 -2.94273437 6.08648438 -3.07421875 5.26171875 C-3 3 -3 3 -1.51953125 1.20703125 C-1.01808594 0.80871094 -0.51664062 0.41039062 0 0 Z " fill="#1BC6C5" transform="translate(331,910)"/>
<path d="M0 0 C0.66 0 1.32 0 2 0 C2.66 1.98 3.32 3.96 4 6 C3.34 6 2.68 6 2 6 C2 5.34 2 4.68 2 4 C1.34 4 0.68 4 0 4 C0 4.66 0 5.32 0 6 C-0.66 6 -1.32 6 -2 6 C-1.34 4.02 -0.68 2.04 0 0 Z " fill="#022C2C" transform="translate(797,908)"/>
<path d="M0 0 C1.66611905 -0.042721 3.33382885 -0.04063832 5 0 C6 1 6 1 6.0625 4.0625 C6.041875 5.031875 6.02125 6.00125 6 7 C4 4 4 4 4 2 C3.01 2 2.02 2 1 2 C0.67 2.66 0.34 3.32 0 4 C0 2.68 0 1.36 0 0 Z " fill="#072626" transform="translate(597,901)"/>
<path d="M0 0 C0.33 1.32 0.66 2.64 1 4 C0.34 4 -0.32 4 -1 4 C-1.33 5.65 -1.66 7.3 -2 9 C-2.99 9.33 -3.98 9.66 -5 10 C-3.66511872 6.40608886 -2.03977277 3.24509304 0 0 Z " fill="#032F2F" transform="translate(516,614)"/>
<path d="M0 0 C0.8125 1.625 0.8125 1.625 1 4 C-0.46818136 6.24609835 -2.15852858 8.02378677 -4 10 C-4 5.75354935 -2.18249194 3.61475228 0 0 Z " fill="#052229" transform="translate(690,446)"/>
<path d="M0 0 C0.8125 1.625 0.8125 1.625 1 4 C-0.46818136 6.24609835 -2.15852858 8.02378677 -4 10 C-4 5.75354935 -2.18249194 3.61475228 0 0 Z " fill="#05252C" transform="translate(698,432)"/>
<path d="M0 0 C0.33 1.32 0.66 2.64 1 4 C0.34 4 -0.32 4 -1 4 C-1.103125 4.61875 -1.20625 5.2375 -1.3125 5.875 C-2 8 -2 8 -5 10 C-3.66511872 6.40608886 -2.03977277 3.24509304 0 0 Z " fill="#04252D" transform="translate(518,344)"/>
<path d="M0 0 C1.32 1.65 2.64 3.3 4 5 C1 5 1 5 -1 4 C-1 4.99 -1 5.98 -1 7 C-1.66 7 -2.32 7 -3 7 C-1.125 1.125 -1.125 1.125 0 0 Z " fill="#CAF1F6" transform="translate(570,209)"/>
<path d="M0 0 C2.91517292 1.07401108 4.77810176 1.77810176 7 4 C5.1875 4.625 5.1875 4.625 3 5 C2.01 4.34 1.02 3.68 0 3 C0 2.01 0 1.02 0 0 Z " fill="#23C5C4" transform="translate(332,926)"/>
<path d="M0 0 C1.32 0.33 2.64 0.66 4 1 C3.67 3.31 3.34 5.62 3 8 C2.34 7.67 1.68 7.34 1 7 C0.59270772 4.67843403 0.25561323 2.3431213 0 0 Z " fill="#003030" transform="translate(607,920)"/>
<path d="M0 0 C2.35953094 2.35953094 2.49141413 3.77895617 3 7 C1.33333333 7 -0.33333333 7 -2 7 C-1.34 4.69 -0.68 2.38 0 0 Z " fill="#024342" transform="translate(619,908)"/>
</svg>
